HIERARCHY
ROOT base
{
	OFFSET 0.0 0.0 0.0
	CHANNELS 6 Xposition Yposition Zposition Zrotation Yrotation Xrotation
	JOINT root
	{
		OFFSET 0 0 0
		CHANNELS 6 Xposition Yposition Zposition Zrotation Yrotation Xrotation
		JOINT chest
		{
			OFFSET 0 4.72302 0
			CHANNELS 3 Zrotation Yrotation Xrotation
			JOINT neck
			{
				OFFSET 0 4.47788 0
				CHANNELS 3 Zrotation Yrotation Xrotation
				End Site
				{
					OFFSET 0.0 0.0 0.0
				}
			}
			JOINT right_shoulder
			{
				OFFSET -0.481 4.87 3.6622
				CHANNELS 3 Zrotation Yrotation Xrotation
				JOINT right_elbow
				{
					OFFSET 0 -5.49576 0
					CHANNELS 3 Zrotation Yrotation Xrotation
					JOINT right_wrist
					{
						OFFSET 0 -5.17894 0
						CHANNELS 3 Zrotation Yrotation Xrotation
						End Site
						{
							OFFSET 0.0 0.0 0.0
						}
					}
				}
			}
			JOINT left_shoulder
			{
				OFFSET -0.481 4.87 -3.6622
				CHANNELS 3 Zrotation Yrotation Xrotation
				JOINT left_elbow
				{
					OFFSET 0 -5.49576 0
					CHANNELS 3 Zrotation Yrotation Xrotation
					JOINT left_wrist
					{
						OFFSET 0 -5.17894 0
						CHANNELS 3 Zrotation Yrotation Xrotation
						End Site
						{
							OFFSET 0.0 0.0 0.0
						}
					}
				}
			}
		}
		JOINT right_hip
		{
			OFFSET 0 0 1.69774
			CHANNELS 3 Zrotation Yrotation Xrotation
			JOINT right_knee
			{
				OFFSET 0 -8.43092 0
				CHANNELS 3 Zrotation Yrotation Xrotation
				JOINT right_ankle
				{
					OFFSET 0 -8.1974 0
					CHANNELS 3 Zrotation Yrotation Xrotation
					End Site
					{
						OFFSET 0.0 0.0 0.0
					}
				}
			}
		}
		JOINT left_hip
		{
			OFFSET 0 0 -1.69774
			CHANNELS 3 Zrotation Yrotation Xrotation
			JOINT left_knee
			{
				OFFSET 0 -8.43092 0
				CHANNELS 3 Zrotation Yrotation Xrotation
				JOINT left_ankle
				{
					OFFSET 0 -8.1974 0
					CHANNELS 3 Zrotation Yrotation Xrotation
					End Site
					{
						OFFSET 0.0 0.0 0.0
					}
				}
			}
		}
	}
	JOINT red_arrow
	{
		OFFSET 0 0 0
		CHANNELS 3 Zrotation Yrotation Xrotation
		End Site
		{
			OFFSET 0.0 0.0 0.0
		}
	}
	JOINT blue_arrow
	{
		OFFSET 0 0 0
		CHANNELS 3 Zrotation Yrotation Xrotation
		End Site
		{
			OFFSET 0.0 0.0 0.0
		}
	}
}
MOTION
Frames: 13
Frame Time: 0.0333333333333333
-56.76108751297 0 48.3378637045622 0 -32.7538344116881 0 0 14.2680364489555 0 -86.2662941105667 12.0300271056777 -25.765263982683 15.9138775550405 -3.54136945321711 -4.10484050657631 -16.2190720346953 -15.0510903712185 -3.95224676181717 36.9727911839757 35.6827567329724 -22.2109083275224 -0.0124986058508886 0 0 0 0 0 15.8314928540462 -51.1234524674593 25.530249062118 13.2495305086182 0 0 0 0 0 109.414279341198 13.0805884622411 -17.9687247933071 -72.6819690714516 0 0 40.9777284258311 -7.14221844278056 12.8936510013102 133.183288300845 -2.64657838415532 -9.58026657288453 -47.4449596731989 0 0 -1.15243107674775 13.0218045652069 -4.63322178242731 0 0 0 0 0 0
-56.8591919541359 0 48.4685948640108 0 -29.979102566555 0 0 13.8155927419662 0 -79.0481320685301 14.0130454605314 -20.140349393441 14.2347362745396 -4.51481079271857 -3.61785712753465 -12.7487683303914 -12.4880176852704 -4.82449559988563 44.6489226978561 32.6039549232536 -10.3028954121094 5.06321538974904 0 0 0 0 0 19.1622051407697 -45.5184661271731 22.2563004106162 14.5136414296366 0 0 0 0 0 106.29222312954 13.387682266603 -17.6132247925794 -78.0850653464711 0 0 43.3733212196614 -4.94416946537047 12.8933480711633 129.392102985369 1.53930407509728 -6.33448884770258 -52.5698042867158 0 0 -2.35990971010144 9.22320390214673 -4.20734168015445 0 0 0 0 0 0
-56.6576305031776 0 48.8587275385857 0 -27.8903543146092 0 0 14.0041064500809 0 -68.1029448792543 17.1956915148193 -18.6893378905237 4.69667034672615 -4.55280386689013 -0.937628256508655 -11.2149635902376 -9.17284813726157 -2.68703259868125 44.2348586277681 27.7168576765214 -4.43116267078689 5.44547503749845 0 0 0 0 0 28.8574963929137 -38.5945297030937 14.9223173334389 11.3564582027845 0 0 0 0 0 93.5565242172953 8.23319122217483 -17.4178153442722 -76.2382504967913 0 0 43.9863556531804 -4.71534347353151 11.0931168945241 116.690819565473 3.05743820599221 -4.89345926444006 -51.2826824583836 0 0 -1.97652743624307 3.71259601425421 -2.69493430285396 0 0 0 0 0 0
-56.2874722123146 0 49.1981859475374 0 -26.1301794252905 0 0 14.5360829591751 0 -58.5743816352093 19.0016637965203 -16.8954544607601 -1.09879013086381 -4.0817132712605 0.913685752419285 -13.1356491260586 -8.85020011761432 -1.47678212489843 37.7563753467795 23.0737611990612 -3.30487610539143 9.84694883017128 0 0 0 0 0 30.9664873206558 -32.7759130899919 12.1397191480241 10.7712117362047 0 0 0 0 0 80.3750678535199 2.99912152202657 -16.3102266962682 -69.716177990427 0 0 42.4012748484522 -4.25076209964535 9.4056844307184 103.058556776266 3.72222146565161 -3.15998818525651 -46.3382060653738 0 0 -2.50273096425759 -0.670774221472247 -1.68125290192622 0 0 0 0 0 0
-55.8230632543564 0 49.4048517107964 0 -24.5777335550954 0 0 15.1460075974464 0 -48.9274478453671 20.3884552948929 -13.4412490275931 -5.81580538647374 -3.89109091090665 2.12298384620547 -15.4697672902204 -9.09920575057866 -0.187056405605698 31.3880751058802 19.0817397830582 -3.23950011501489 14.5605170179104 0 0 0 0 0 30.0955637492999 -28.3926991637915 10.8751465598253 12.4026843817323 0 0 0 0 0 66.6922598707425 -0.950581217071505 -15.659829493378 -61.5173623447163 0 0 39.5153047362075 -3.68318718805304 8.24965812291605 88.318317067133 4.25154600834448 -2.20945177922164 -39.7316372887873 0 0 -3.43335627623593 -2.84615002631496 -1.38399254370748 0 0 0 0 0 0
-55.3164331912994 0 49.5617752805352 0 -23.2301374100382 0 0 15.6900455474854 0 -39.9042211666341 20.1840607624797 -9.56385031976852 -7.98119774479697 -3.38882424035693 2.80809631539401 -17.2502725296601 -9.38958570474054 0.965806786965325 26.4406950807178 16.0871677905289 -3.26211878429168 17.6129524636512 0 0 0 0 0 27.6545106717433 -24.4473072368937 10.1810125944338 13.4733344633783 0 0 0 0 0 54.4658926610034 -3.47759773733968 -14.2121541149963 -53.4699993136614 0 0 35.925528237448 -4.30356648184525 7.15662278018939 74.7017188650428 4.43793134871266 -1.22693924474454 -33.6506583990224 0 0 -4.05978577947028 -2.43789328777831 -1.52853508837492 0 0 0 0 0 0
-54.8170410275459 0 49.7238240644336 0 -22.0697181626097 0 0 16.1664030075073 0 -32.4463298492875 18.8692756112973 -6.22751600452876 -7.97934956045166 -2.70095581500026 2.88045143833278 -18.3198366542616 -9.63237988002261 1.92388779824129 22.43208582658 13.5478613849484 -3.3859635242185 19.7461708056079 0 0 0 0 0 24.7253932140698 -21.0093816508415 9.82133982878002 13.8995246072088 0 0 0 0 0 43.3261999273177 -4.5570880505634 -12.4890091356851 -45.1015081085892 0 0 32.2385967791821 -4.70279606960434 6.55044413858477 62.6311695599844 4.32388462335108 -0.403717023880186 -27.5700602923038 0 0 -4.87083307984995 -0.163438114122987 -1.97513108829755 0 0 0 0 0 0
-54.344941174984 0 49.9028403416276 0 -21.0908138791122 0 0 16.5638358831406 0 -26.2797217985588 16.7906375827644 -3.61944344078436 -7.31246942077168 -2.01196158738916 2.67149765958932 -18.8207353075016 -9.825421830976 2.62494821458163 18.9834123999131 11.2164679532024 -3.53718707956089 21.1930183152282 0 0 0 0 0 21.5889536896999 -17.8646368256018 9.38640591679424 13.8254093707514 0 0 0 0 0 33.2125391201852 -4.93224531501425 -10.695569495555 -36.7197492610543 0 0 28.4945174066508 -4.90161148258068 5.87617369227182 51.6563682623342 4.06858337216771 0.365963815439165 -21.3579742138732 0 0 -5.62172328396826 3.5955400159097 -2.38447201833503 0 0 0 0 0 0
-53.9149373352528 0 50.0934752821922 0 -20.2820204075306 0 0 16.8720393180847 0 -21.1161973196751 14.379421136311 -1.5793818755147 -6.58449741681613 -1.47105359253113 2.34710227724858 -19.2547758613687 -9.98588395892088 3.2230291824422 16.0520777188544 9.1724258755645 -3.77509180193874 21.8134829447159 0 0 0 0 0 18.4354459959771 -15.1063290429981 8.84510108151877 13.4326769085702 0 0 0 0 0 23.9933438644147 -4.76165354943618 -9.00860984986114 -28.6634899086055 0 0 24.8071577079929 -5.73763846770283 5.08538534945201 41.7499862237527 3.57809139620258 1.11983805309041 -15.1238727282004 0 0 -6.83751881601912 7.09591535460102 -2.60308709625812 0 0 0 0 0 0
-53.5282998323441 0 50.284158782661 0 -19.642660257868 0 0 17.0871093511581 0 -16.6904372800994 11.6503438966772 0.0840668253312512 -5.96976103299329 -1.03869277013441 2.03392549810396 -19.737327210412 -10.1516462913623 3.72146887795473 13.6763914400321 7.44553629692975 -4.06409466852952 21.9532234924925 0 0 0 0 0 15.2746851112332 -12.4782652654108 8.07030731171013 12.8841700295359 0 0 0 0 0 15.5810555017614 -4.07224566086011 -7.69093435110238 -21.6021193257553 0 0 21.3069786949327 -6.95175664278688 4.47698726614629 32.7732940878002 2.88246763104309 1.95465759996671 -9.06771389210568 0 0 -8.31642139722865 9.87520769701408 -2.64783329271082 0 0 0 0 0 0
-53.2076731592417 0 50.4824261948466 0 -19.1615050548888 0 0 17.2202222824097 0 -13.1414872452098 8.90642418823638 1.27225869323583 -5.36215145413326 -0.699848100373842 1.77831805784577 -20.1549611656455 -10.2824840050031 4.17637085800613 11.6268353903694 5.92068343398682 -4.30449154101544 21.6479533101807 0 0 0 0 0 12.3407041855162 -10.0589031380789 7.07203344287258 12.1798545827025 0 0 0 0 0 8.2933936934635 -2.90233157453536 -6.89759701170112 -15.3928404550736 0 0 18.2684521531886 -7.06780376377909 4.07196598296452 24.9460534183142 2.2329432143648 2.8318956347718 -3.40867890294162 0 0 -9.90535222019383 12.2442290217603 -2.61255711145923 0 0 0 0 0 0
-52.9991209238768 0 50.6906245410442 0 -18.784518012658 0 0 17.2809988260269 0 -10.6998518172034 7.03947734286415 1.92122234808441 -4.73746071865616 -0.852270733476905 1.7194333008452 -20.5542406472987 -10.4640096040341 4.48031864842168 9.69765124861328 4.58612156226288 -4.39808591176308 21.455912296382 0 0 0 0 0 9.89506173847456 -8.09475716257927 6.03847840847314 11.5443106030747 0 0 0 0 0 2.86607131623682 -2.27057931288386 -6.32111433088634 -10.5360645447804 0 0 16.1437422431178 -6.74468531388679 3.60799405529586 19.5421373508981 1.26305689012217 3.61897336687143 0.00252697593449049 0 0 -10.6771428403835 14.0571082303902 -2.73916398600238 0 0 0 0 0 0
-52.8746859759092 0 50.8941663652658 0 -18.4633770204419 0 0 17.2750085115433 0 -8.80934576314369 6.03023336682564 2.31169236227869 -4.22286635304073 -1.58265880453276 1.88603134776696 -20.9540889094315 -10.511327460143 4.52838477898776 8.46059546523527 3.61800362758467 -4.79557256610826 20.4502079222326 0 0 0 0 0 8.18450131151088 -6.93118410390558 5.41321907979854 10.4572313551538 0 0 0 0 0 -0.940535873909317 -2.47061298631145 -5.78466083323996 -7.58454172893199 0 0 15.5189327769732 -6.26601053019673 3.08580725289709 16.7598206206031 -0.29213618030489 4.32920966194163 0.0007987272365761 0 0 -10.2210645767816 16.141601684094 -4.77745059008425 0 0 0 0 0 0
